<?xml version="1.0" encoding="UTF-8" standalone="no"?>
<!-- Generator: Adobe Illustrator 14.0.0, SVG Export Plug-In . SVG Version: 6.00 Build 43363)  -->

<svg
   xmlns:dc="http://purl.org/dc/elements/1.1/"
   xmlns:cc="http://creativecommons.org/ns#"
   xmlns:rdf="http://www.w3.org/1999/02/22-rdf-syntax-ns#"
   xmlns:svg="http://www.w3.org/2000/svg"
   xmlns="http://www.w3.org/2000/svg"
   xmlns:xlink="http://www.w3.org/1999/xlink"
   xmlns:sodipodi="http://sodipodi.sourceforge.net/DTD/sodipodi-0.dtd"
   xmlns:inkscape="http://www.inkscape.org/namespaces/inkscape"
   version="1.1"
   id="Layer_1"
   x="0px"
   y="0px"
   width="80"
   height="100"
   viewBox="0 0 383 509"
   enable-background="new 0 0 637 841"
   xml:space="preserve">
<path
   style="fill:#00983d;fill-rule:evenodd"
   id="path107"
   d="m 575.275,50.704 c -1.42,-3.354 -3.165,-5.913 -3.854,-6.948 -0.69,1.035 -2.435,3.594 -3.853,6.948 1.391,1.494 2.76,3.254 3.853,5.251 1.09,-1.997 2.465,-3.757 3.854,-5.251"
   clip-rule="evenodd"
   clip-path="url(#SVGID_18_)"
   transform="matrix(6.7555909,0,0,6.7555909,-3668.7925,-175.5035)" /><path
   style="fill:#00983d;fill-rule:evenodd"
   id="path109"
   d="m 567.569,94.379 c 1.418,3.351 3.162,5.91 3.853,6.945 0.688,-1.035 2.434,-3.592 3.854,-6.945 -1.39,-1.499 -2.765,-3.258 -3.854,-5.254 -1.093,1.996 -2.462,3.755 -3.853,5.254"
   clip-rule="evenodd"
   clip-path="url(#SVGID_18_)"
   transform="matrix(6.7555909,0,0,6.7555909,-3668.7925,-175.5035)" /><path
   style="fill:#00983d;fill-rule:evenodd"
   id="path111"
   d="m 567.569,50.704 c -2.476,-2.67 -4.99,-4.476 -5.991,-5.212 -0.296,1.207 -1.059,4.209 -1.242,7.847 1.813,0.929 3.706,2.115 5.413,3.614 0.344,-2.249 1.03,-4.372 1.82,-6.249"
   clip-rule="evenodd"
   clip-path="url(#SVGID_18_)"
   transform="matrix(6.7555909,0,0,6.7555909,-3668.7925,-175.5035)" /><path
   style="fill:#00983d;fill-rule:evenodd"
   id="path113"
   d="m 575.275,94.379 c 2.472,2.667 4.99,4.473 5.992,5.209 0.293,-1.208 1.058,-4.21 1.24,-7.843 -1.812,-0.931 -3.707,-2.12 -5.414,-3.619 -0.341,2.249 -1.03,4.373 -1.818,6.253"
   clip-rule="evenodd"
   clip-path="url(#SVGID_18_)"
   transform="matrix(6.7555909,0,0,6.7555909,-3668.7925,-175.5035)" /><path
   style="fill:#00983d;fill-rule:evenodd"
   id="path115"
   d="m 560.336,53.339 c -3.24,-1.659 -6.222,-2.499 -7.414,-2.85 0.134,1.238 0.443,4.32 1.516,7.799 2.021,0.25 4.204,0.719 6.324,1.547 -0.449,-2.23 -0.53,-4.463 -0.426,-6.496"
   clip-rule="evenodd"
   clip-path="url(#SVGID_18_)"
   transform="matrix(6.7555909,0,0,6.7555909,-3668.7925,-175.5035)" /><path
   style="fill:#00983d;fill-rule:evenodd"
   id="path117"
   d="m 582.508,91.745 c 3.239,1.658 6.221,2.496 7.414,2.845 -0.133,-1.236 -0.445,-4.318 -1.516,-7.797 -2.021,-0.252 -4.205,-0.722 -6.325,-1.551 0.449,2.236 0.53,4.465 0.427,6.503"
   clip-rule="evenodd"
   clip-path="url(#SVGID_18_)"
   transform="matrix(6.7555909,0,0,6.7555909,-3668.7925,-175.5035)" /><path
   style="fill:#00983d;fill-rule:evenodd"
   id="path119"
   d="m 557.06,64.248 c -1.183,-1.944 -2.021,-4.015 -2.622,-5.96 -3.612,-0.453 -6.699,-0.221 -7.942,-0.14 0.55,1.115 1.895,3.904 4.088,6.809 1.988,-0.456 4.201,-0.761 6.476,-0.709"
   clip-rule="evenodd"
   clip-path="url(#SVGID_18_)"
   transform="matrix(6.7555909,0,0,6.7555909,-3668.7925,-175.5035)" /><path
   style="fill:#00983d;fill-rule:evenodd"
   id="path121"
   d="m 585.781,80.833 c 1.186,1.943 2.028,4.016 2.625,5.96 3.611,0.451 6.7,0.22 7.943,0.143 -0.552,-1.12 -1.894,-3.91 -4.092,-6.815 -1.986,0.456 -4.196,0.764 -6.476,0.712"
   clip-rule="evenodd"
   clip-path="url(#SVGID_18_)"
   transform="matrix(6.7555909,0,0,6.7555909,-3668.7925,-175.5035)" /><path
   style="fill:#00983d;fill-rule:evenodd"
   id="path123"
   d="m 550.583,64.957 c -3.547,0.81 -6.369,2.083 -7.508,2.584 0.899,0.858 3.118,3.021 6.174,4.999 1.708,-1.104 3.684,-2.153 5.84,-2.88 -1.776,-1.423 -3.274,-3.08 -4.506,-4.703"
   clip-rule="evenodd"
   clip-path="url(#SVGID_18_)"
   transform="matrix(6.7555909,0,0,6.7555909,-3668.7925,-175.5035)" /><path
   style="fill:#00983d;fill-rule:evenodd"
   id="path125"
   d="m 593.592,72.54 c -1.708,1.107 -3.683,2.154 -5.839,2.88 1.776,1.422 3.276,3.078 4.505,4.701 3.551,-0.81 6.374,-2.082 7.51,-2.583 -0.9,-0.857 -3.117,-3.024 -6.176,-4.998"
   clip-rule="evenodd"
   clip-path="url(#SVGID_18_)"
   transform="matrix(6.7555909,0,0,6.7555909,-3668.7925,-175.5035)" /><path
   style="fill:#00983d;fill-rule:evenodd"
   id="path127"
   d="m 555.089,75.42 c -2.156,-0.726 -4.132,-1.773 -5.84,-2.88 -3.056,1.974 -5.274,4.141 -6.174,4.998 1.139,0.501 3.961,1.773 7.508,2.583 1.232,-1.623 2.73,-3.279 4.506,-4.701"
   clip-rule="evenodd"
   clip-path="url(#SVGID_18_)"
   transform="matrix(6.7555909,0,0,6.7555909,-3668.7925,-175.5035)" /><path
   style="fill:#00983d;fill-rule:evenodd"
   id="path129"
   d="m 587.753,69.66 c 2.156,0.727 4.131,1.776 5.839,2.88 3.06,-1.978 5.276,-4.141 6.176,-4.999 -1.136,-0.501 -3.959,-1.774 -7.51,-2.584 -1.229,1.623 -2.729,3.28 -4.505,4.703"
   clip-rule="evenodd"
   clip-path="url(#SVGID_18_)"
   transform="matrix(6.7555909,0,0,6.7555909,-3668.7925,-175.5035)" /><path
   style="fill:#00983d;fill-rule:evenodd"
   id="path131"
   d="m 550.583,80.121 c -2.193,2.905 -3.538,5.695 -4.088,6.815 1.243,0.077 4.33,0.308 7.942,-0.143 0.601,-1.944 1.439,-4.017 2.622,-5.96 -2.274,0.052 -4.487,-0.256 -6.476,-0.712"
   clip-rule="evenodd"
   clip-path="url(#SVGID_18_)"
   transform="matrix(6.7555909,0,0,6.7555909,-3668.7925,-175.5035)" /><path
   style="fill:#00983d;fill-rule:evenodd"
   id="path133"
   d="m 592.258,64.957 c 2.198,-2.905 3.54,-5.694 4.092,-6.814 -1.243,-0.076 -4.332,-0.308 -7.943,0.145 -0.597,1.945 -1.439,4.016 -2.625,5.96 2.279,-0.052 4.489,0.253 6.476,0.709"
   clip-rule="evenodd"
   clip-path="url(#SVGID_18_)"
   transform="matrix(6.7555909,0,0,6.7555909,-3668.7925,-175.5035)" /><path
   style="fill:#00983d;fill-rule:evenodd"
   id="path135"
   d="m 560.762,85.242 c -2.12,0.829 -4.304,1.298 -6.324,1.551 -1.072,3.479 -1.382,6.561 -1.516,7.797 1.192,-0.349 4.174,-1.187 7.414,-2.845 -0.104,-2.038 -0.023,-4.267 0.426,-6.503"
   clip-rule="evenodd"
   clip-path="url(#SVGID_18_)"
   transform="matrix(6.7555909,0,0,6.7555909,-3668.7925,-175.5035)" /><path
   style="fill:#00983d;fill-rule:evenodd"
   id="path137"
   d="m 582.081,59.835 c 2.12,-0.829 4.304,-1.297 6.325,-1.547 1.07,-3.479 1.383,-6.561 1.516,-7.799 -1.193,0.348 -4.175,1.187 -7.414,2.846 0.103,2.037 0.022,4.265 -0.427,6.5"
   clip-rule="evenodd"
   clip-path="url(#SVGID_18_)"
   transform="matrix(6.7555909,0,0,6.7555909,-3668.7925,-175.5035)" /><path
   style="fill:#00983d;fill-rule:evenodd"
   id="path139"
   d="m 560.336,91.745 c 0.184,3.633 0.946,6.635 1.242,7.843 1.001,-0.736 3.516,-2.542 5.991,-5.209 -0.79,-1.88 -1.477,-4.004 -1.82,-6.253 -1.707,1.499 -3.6,2.688 -5.413,3.619"
   clip-rule="evenodd"
   clip-path="url(#SVGID_18_)"
   transform="matrix(6.7555909,0,0,6.7555909,-3668.7925,-175.5035)" /><path
   style="fill:#00983d;fill-rule:evenodd"
   id="path141"
   d="m 582.508,53.335 c -0.183,-3.634 -0.947,-6.636 -1.24,-7.843 -1.002,0.736 -3.521,2.542 -5.992,5.212 0.787,1.873 1.477,4 1.818,6.249 1.707,-1.499 3.602,-2.688 5.414,-3.618"
   clip-rule="evenodd"
   clip-path="url(#SVGID_18_)"
   transform="matrix(6.7555909,0,0,6.7555909,-3668.7925,-175.5035)" /><path
   style="fill:#00983d"
   id="path143"
   d="m 581.122,25.979 h -1.885 v 12.11 l -0.041,1.804 h 1.822 l 0.041,-1.524 c 0.202,0.301 0.424,0.642 0.985,1.023 0.863,0.582 1.763,0.641 2.244,0.641 1.383,0 2.727,-0.581 3.53,-1.724 0.502,-0.661 0.962,-1.725 0.962,-3.67 0,-2.205 -0.683,-3.207 -1.184,-3.789 -0.921,-1.043 -2.185,-1.284 -3.188,-1.284 -2.286,0 -3.029,1.264 -3.288,1.725 v -5.312 m 5.676,8.781 c 0,1.643 -0.581,3.91 -2.908,3.91 -2.806,0 -2.806,-3.148 -2.806,-3.81 0,-0.641 0,-4.01 2.887,-4.01 2.628,0 2.827,2.907 2.827,3.91 z"
   clip-path="url(#SVGID_18_)"
   transform="matrix(6.7555909,0,0,6.7555909,-3668.7925,-175.5035)" /><path
   style="fill:#00983d"
   id="path145"
   d="m 590.226,43.763 h 1.865 V 38.77 c 0.54,0.882 1.622,1.504 3.085,1.504 2.408,0 4.592,-1.644 4.592,-5.394 0,-3.729 -2.063,-5.213 -4.229,-5.213 -0.821,0 -2.487,0.241 -3.429,1.824 l -0.04,-1.663 h -1.905 c 0.041,0.962 0.061,1.203 0.061,1.643 v 12.292 m 1.803,-8.602 c 0,-0.903 0,-4.091 3.007,-4.091 2.226,0 2.768,1.885 2.768,3.69 0,0.722 -0.1,2.166 -0.821,3.148 -0.642,0.882 -1.646,0.983 -2.125,0.983 -2.647,0 -2.829,-2.507 -2.829,-3.73 z"
   clip-path="url(#SVGID_18_)"
   transform="matrix(6.7555909,0,0,6.7555909,-3668.7925,-175.5035)" /><path
   style="fill:#84c726;fill-rule:evenodd"
   id="path147"
   d="m 569.448,61.351 c 0.364,-1.947 1.071,-3.751 1.974,-5.396 -1.093,-1.997 -2.462,-3.757 -3.853,-5.251 -0.79,1.877 -1.477,4 -1.82,6.249 1.411,1.242 2.696,2.694 3.699,4.398"
   clip-rule="evenodd"
   clip-path="url(#SVGID_18_)"
   transform="matrix(6.7555909,0,0,6.7555909,-3668.7925,-175.5035)" /><path
   style="fill:#84c726;fill-rule:evenodd"
   id="path149"
   d="m 573.396,83.729 c -0.366,1.946 -1.071,3.75 -1.975,5.396 1.089,1.996 2.464,3.755 3.854,5.254 0.787,-1.88 1.477,-4.004 1.818,-6.253 -1.407,-1.241 -2.694,-2.694 -3.697,-4.397"
   clip-rule="evenodd"
   clip-path="url(#SVGID_18_)"
   transform="matrix(6.7555909,0,0,6.7555909,-3668.7925,-175.5035)" /><path
   style="fill:#84c726;fill-rule:evenodd"
   id="path151"
   d="m 560.762,59.835 c 1.746,0.681 3.449,1.608 4.979,2.864 -0.321,-1.951 -0.275,-3.889 0.009,-5.746 -1.707,-1.499 -3.6,-2.685 -5.413,-3.614 -0.105,2.033 -0.024,4.266 0.425,6.496"
   clip-rule="evenodd"
   clip-path="url(#SVGID_18_)"
   transform="matrix(6.7555909,0,0,6.7555909,-3668.7925,-175.5035)" /><path
   style="fill:#84c726;fill-rule:evenodd"
   id="path153"
   d="m 582.081,85.242 c -1.747,-0.679 -3.448,-1.608 -4.976,-2.86 0.321,1.95 0.271,3.886 -0.012,5.744 1.707,1.499 3.603,2.688 5.414,3.619 0.104,-2.038 0.023,-4.267 -0.426,-6.503"
   clip-rule="evenodd"
   clip-path="url(#SVGID_18_)"
   transform="matrix(6.7555909,0,0,6.7555909,-3668.7925,-175.5035)" /><path
   style="fill:#84c726;fill-rule:evenodd"
   id="path155"
   d="m 562.72,65.236 c -0.975,-1.723 -1.589,-3.561 -1.958,-5.401 -2.12,-0.828 -4.304,-1.297 -6.324,-1.547 0.601,1.945 1.439,4.016 2.622,5.96 1.872,0.042 3.794,0.332 5.66,0.988"
   clip-rule="evenodd"
   clip-path="url(#SVGID_18_)"
   transform="matrix(6.7555909,0,0,6.7555909,-3668.7925,-175.5035)" /><path
   style="fill:#84c726;fill-rule:evenodd"
   id="path157"
   d="m 580.125,79.843 c 0.971,1.721 1.588,3.56 1.956,5.399 2.12,0.829 4.304,1.299 6.325,1.551 -0.597,-1.944 -1.439,-4.017 -2.625,-5.96 -1.873,-0.043 -3.791,-0.332 -5.656,-0.99"
   clip-rule="evenodd"
   clip-path="url(#SVGID_18_)"
   transform="matrix(6.7555909,0,0,6.7555909,-3668.7925,-175.5035)" /><path
   style="fill:#84c726;fill-rule:evenodd"
   id="path159"
   d="m 555.089,69.66 c 1.776,-0.602 3.678,-0.986 5.656,-1.006 -1.503,-1.288 -2.714,-2.803 -3.686,-4.406 -2.274,-0.052 -4.487,0.253 -6.477,0.709 1.233,1.623 2.731,3.28 4.507,4.703"
   clip-rule="evenodd"
   clip-path="url(#SVGID_18_)"
   transform="matrix(6.7555909,0,0,6.7555909,-3668.7925,-175.5035)" /><path
   style="fill:#84c726;fill-rule:evenodd"
   id="path161"
   d="m 587.753,75.42 c -1.778,0.599 -3.676,0.986 -5.654,1.005 1.503,1.286 2.711,2.804 3.683,4.408 2.279,0.052 4.49,-0.256 6.477,-0.712 -1.23,-1.623 -2.73,-3.279 -4.506,-4.701"
   clip-rule="evenodd"
   clip-path="url(#SVGID_18_)"
   transform="matrix(6.7555909,0,0,6.7555909,-3668.7925,-175.5035)" /><path
   style="fill:#84c726;fill-rule:evenodd"
   id="path163"
   d="m 560.058,72.54 c -1.85,-0.695 -3.504,-1.709 -4.969,-2.88 -2.156,0.727 -4.132,1.776 -5.84,2.88 1.708,1.107 3.684,2.154 5.84,2.88 1.465,-1.174 3.119,-2.186 4.969,-2.88"
   clip-rule="evenodd"
   clip-path="url(#SVGID_18_)"
   transform="matrix(6.7555909,0,0,6.7555909,-3668.7925,-175.5035)" /><path
   style="fill:#84c726;fill-rule:evenodd"
   id="path165"
   d="m 582.783,72.54 c 1.854,0.694 3.506,1.706 4.97,2.88 2.156,-0.726 4.131,-1.773 5.839,-2.88 -1.708,-1.104 -3.683,-2.153 -5.839,-2.88 -1.464,1.171 -3.116,2.185 -4.97,2.88"
   clip-rule="evenodd"
   clip-path="url(#SVGID_18_)"
   transform="matrix(6.7555909,0,0,6.7555909,-3668.7925,-175.5035)" /><path
   style="fill:#84c726;fill-rule:evenodd"
   id="path167"
   d="m 557.06,80.833 c 0.972,-1.604 2.183,-3.122 3.686,-4.408 -1.979,-0.019 -3.88,-0.404 -5.656,-1.005 -1.776,1.422 -3.273,3.078 -4.506,4.701 1.988,0.456 4.201,0.764 6.476,0.712"
   clip-rule="evenodd"
   clip-path="url(#SVGID_18_)"
   transform="matrix(6.7555909,0,0,6.7555909,-3668.7925,-175.5035)" /><path
   style="fill:#84c726;fill-rule:evenodd"
   id="path169"
   d="m 585.781,64.248 c -0.972,1.603 -2.18,3.118 -3.683,4.406 1.979,0.02 3.876,0.404 5.654,1.006 1.776,-1.423 3.276,-3.08 4.505,-4.703 -1.986,-0.456 -4.196,-0.761 -6.476,-0.709"
   clip-rule="evenodd"
   clip-path="url(#SVGID_18_)"
   transform="matrix(6.7555909,0,0,6.7555909,-3668.7925,-175.5035)" /><path
   style="fill:#84c726;fill-rule:evenodd"
   id="path171"
   d="m 562.72,79.843 c -1.866,0.658 -3.788,0.947 -5.66,0.99 -1.183,1.943 -2.021,4.016 -2.622,5.96 2.021,-0.253 4.204,-0.722 6.324,-1.551 0.369,-1.839 0.983,-3.678 1.958,-5.399"
   clip-rule="evenodd"
   clip-path="url(#SVGID_18_)"
   transform="matrix(6.7555909,0,0,6.7555909,-3668.7925,-175.5035)" /><path
   style="fill:#84c726;fill-rule:evenodd"
   id="path173"
   d="m 580.125,65.236 c 1.865,-0.656 3.783,-0.946 5.656,-0.988 1.186,-1.944 2.028,-4.015 2.625,-5.96 -2.021,0.25 -4.205,0.718 -6.325,1.547 -0.368,1.84 -0.985,3.678 -1.956,5.401"
   clip-rule="evenodd"
   clip-path="url(#SVGID_18_)"
   transform="matrix(6.7555909,0,0,6.7555909,-3668.7925,-175.5035)" /><path
   style="fill:#84c726;fill-rule:evenodd"
   id="path175"
   d="m 569.448,83.729 c -1.003,1.703 -2.288,3.156 -3.699,4.397 0.344,2.249 1.03,4.373 1.82,6.253 1.391,-1.499 2.76,-3.258 3.853,-5.254 -0.902,-1.646 -1.609,-3.45 -1.974,-5.396"
   clip-rule="evenodd"
   clip-path="url(#SVGID_18_)"
   transform="matrix(6.7555909,0,0,6.7555909,-3668.7925,-175.5035)" /><path
   style="fill:#84c726;fill-rule:evenodd"
   id="path177"
   d="m 565.74,82.382 c -1.529,1.252 -3.232,2.181 -4.979,2.86 -0.449,2.236 -0.529,4.465 -0.426,6.503 1.813,-0.931 3.706,-2.12 5.413,-3.619 -0.283,-1.858 -0.329,-3.796 -0.008,-5.744"
   clip-rule="evenodd"
   clip-path="url(#SVGID_18_)"
   transform="matrix(6.7555909,0,0,6.7555909,-3668.7925,-175.5035)" /><path
   style="fill:#84c726;fill-rule:evenodd"
   id="path179"
   d="m 573.396,61.351 c 1.003,-1.704 2.289,-3.159 3.697,-4.398 -0.342,-2.249 -1.031,-4.376 -1.818,-6.249 -1.39,1.494 -2.765,3.254 -3.854,5.251 0.904,1.645 1.609,3.449 1.975,5.396"
   clip-rule="evenodd"
   clip-path="url(#SVGID_18_)"
   transform="matrix(6.7555909,0,0,6.7555909,-3668.7925,-175.5035)" /><path
   style="fill:#84c726;fill-rule:evenodd"
   id="path181"
   d="m 577.105,62.699 c 1.527,-1.256 3.229,-2.183 4.976,-2.864 0.449,-2.235 0.53,-4.463 0.427,-6.5 -1.812,0.93 -3.707,2.119 -5.414,3.618 0.283,1.857 0.333,3.795 0.011,5.746"
   clip-rule="evenodd"
   clip-path="url(#SVGID_18_)"
   transform="matrix(6.7555909,0,0,6.7555909,-3668.7925,-175.5035)" /><path
   style="fill:#f7e700;fill-rule:evenodd"
   id="path183"
   d="m 569.456,67.144 c -0.386,-2.043 -0.345,-3.98 -0.008,-5.793 -1.003,-1.704 -2.288,-3.156 -3.699,-4.398 -0.284,1.857 -0.33,3.795 -0.009,5.746 1.428,1.173 2.702,2.632 3.716,4.445"
   clip-rule="evenodd"
   clip-path="url(#SVGID_18_)"
   transform="matrix(6.7555909,0,0,6.7555909,-3668.7925,-175.5035)" /><path
   style="fill:#f7e700;fill-rule:evenodd"
   id="path185"
   d="m 573.387,77.938 c 0.385,2.037 0.35,3.974 0.01,5.791 1.003,1.703 2.289,3.156 3.697,4.397 0.283,-1.858 0.333,-3.794 0.012,-5.744 -1.429,-1.176 -2.704,-2.634 -3.719,-4.444"
   clip-rule="evenodd"
   clip-path="url(#SVGID_18_)"
   transform="matrix(6.7555909,0,0,6.7555909,-3668.7925,-175.5035)" /><path
   style="fill:#f7e700;fill-rule:evenodd"
   id="path187"
   d="m 565.74,62.699 c -1.529,-1.256 -3.232,-2.183 -4.979,-2.864 0.369,1.84 0.983,3.678 1.958,5.401 1.741,0.612 3.436,1.549 5.009,2.902 -1.057,-1.785 -1.685,-3.615 -1.988,-5.439"
   clip-rule="evenodd"
   clip-path="url(#SVGID_18_)"
   transform="matrix(6.7555909,0,0,6.7555909,-3668.7925,-175.5035)" /><path
   style="fill:#f7e700;fill-rule:evenodd"
   id="path189"
   d="m 577.105,82.382 c 1.527,1.252 3.229,2.181 4.976,2.86 -0.368,-1.839 -0.985,-3.678 -1.956,-5.399 -1.74,-0.614 -3.438,-1.551 -5.014,-2.902 1.061,1.785 1.693,3.615 1.994,5.441"
   clip-rule="evenodd"
   clip-path="url(#SVGID_18_)"
   transform="matrix(6.7555909,0,0,6.7555909,-3668.7925,-175.5035)" /><path
   style="fill:#f7e700;fill-rule:evenodd"
   id="path191"
   d="m 566.449,69.668 c -1.609,-1.315 -2.828,-2.823 -3.729,-4.432 -1.866,-0.656 -3.788,-0.946 -5.66,-0.988 0.972,1.603 2.183,3.118 3.686,4.406 1.844,-0.022 3.758,0.279 5.703,1.014"
   clip-rule="evenodd"
   clip-path="url(#SVGID_18_)"
   transform="matrix(6.7555909,0,0,6.7555909,-3668.7925,-175.5035)" /><path
   style="fill:#f7e700;fill-rule:evenodd"
   id="path193"
   d="m 576.396,75.411 c 1.604,1.317 2.824,2.821 3.729,4.432 1.865,0.658 3.783,0.947 5.656,0.99 -0.972,-1.604 -2.18,-3.122 -3.683,-4.408 -1.846,0.022 -3.757,-0.277 -5.702,-1.014"
   clip-rule="evenodd"
   clip-path="url(#SVGID_18_)"
   transform="matrix(6.7555909,0,0,6.7555909,-3668.7925,-175.5035)" /><path
   style="fill:#f7e700;fill-rule:evenodd"
   id="path195"
   d="m 565.765,71.543 c -1.963,-0.689 -3.618,-1.686 -5.02,-2.889 -1.979,0.02 -3.88,0.404 -5.656,1.006 1.465,1.171 3.119,2.185 4.969,2.88 1.731,-0.65 3.631,-1.024 5.707,-0.997"
   clip-rule="evenodd"
   clip-path="url(#SVGID_18_)"
   transform="matrix(6.7555909,0,0,6.7555909,-3668.7925,-175.5035)" /><path
   style="fill:#f7e700;fill-rule:evenodd"
   id="path197"
   d="m 577.078,73.533 c 1.959,0.691 3.618,1.69 5.021,2.892 1.979,-0.019 3.876,-0.406 5.654,-1.005 -1.464,-1.174 -3.116,-2.186 -4.97,-2.88 -1.729,0.65 -3.628,1.022 -5.705,0.993"
   clip-rule="evenodd"
   clip-path="url(#SVGID_18_)"
   transform="matrix(6.7555909,0,0,6.7555909,-3668.7925,-175.5035)" /><path
   style="fill:#f7e700;fill-rule:evenodd"
   id="path199"
   d="m 560.058,72.54 c -1.85,0.694 -3.504,1.706 -4.969,2.88 1.776,0.601 3.678,0.986 5.656,1.005 1.401,-1.202 3.057,-2.201 5.02,-2.889 -2.076,0.026 -3.976,-0.346 -5.707,-0.996"
   clip-rule="evenodd"
   clip-path="url(#SVGID_18_)"
   transform="matrix(6.7555909,0,0,6.7555909,-3668.7925,-175.5035)" /><path
   style="fill:#f7e700;fill-rule:evenodd"
   id="path201"
   d="m 582.783,72.54 c 1.854,-0.695 3.506,-1.709 4.97,-2.88 -1.778,-0.602 -3.676,-0.986 -5.654,-1.006 -1.402,1.203 -3.062,2.2 -5.021,2.889 2.077,-0.027 3.976,0.347 5.705,0.997"
   clip-rule="evenodd"
   clip-path="url(#SVGID_18_)"
   transform="matrix(6.7555909,0,0,6.7555909,-3668.7925,-175.5035)" /><path
   style="fill:#f7e700;fill-rule:evenodd"
   id="path203"
   d="m 566.449,75.411 c -1.945,0.737 -3.859,1.036 -5.704,1.014 -1.503,1.286 -2.714,2.804 -3.686,4.408 1.872,-0.043 3.794,-0.332 5.66,-0.99 0.902,-1.611 2.121,-3.115 3.73,-4.432"
   clip-rule="evenodd"
   clip-path="url(#SVGID_18_)"
   transform="matrix(6.7555909,0,0,6.7555909,-3668.7925,-175.5035)" /><path
   style="fill:#f7e700;fill-rule:evenodd"
   id="path205"
   d="m 576.393,69.668 c 1.948,-0.735 3.859,-1.036 5.706,-1.014 1.503,-1.288 2.711,-2.803 3.683,-4.406 -1.873,0.042 -3.791,0.332 -5.656,0.988 -0.905,1.609 -2.125,3.117 -3.733,4.432"
   clip-rule="evenodd"
   clip-path="url(#SVGID_18_)"
   transform="matrix(6.7555909,0,0,6.7555909,-3668.7925,-175.5035)" /><path
   style="fill:#f7e700;fill-rule:evenodd"
   id="path207"
   d="m 569.448,83.729 c 0.364,1.946 1.071,3.75 1.974,5.396 0.903,-1.646 1.608,-3.45 1.975,-5.396 -0.942,-1.592 -1.637,-3.397 -1.975,-5.445 -0.337,2.048 -1.032,3.853 -1.974,5.445"
   clip-rule="evenodd"
   clip-path="url(#SVGID_18_)"
   transform="matrix(6.7555909,0,0,6.7555909,-3668.7925,-175.5035)" /><path
   style="fill:#f7e700;fill-rule:evenodd"
   id="path209"
   d="m 569.456,77.938 c -1.014,1.81 -2.288,3.268 -3.716,4.444 -0.321,1.948 -0.275,3.886 0.009,5.744 1.411,-1.241 2.696,-2.694 3.699,-4.397 -0.337,-1.817 -0.378,-3.754 0.008,-5.791"
   clip-rule="evenodd"
   clip-path="url(#SVGID_18_)"
   transform="matrix(6.7555909,0,0,6.7555909,-3668.7925,-175.5035)" /><path
   style="fill:#f7e700;fill-rule:evenodd"
   id="path211"
   d="m 562.72,79.843 c -0.975,1.721 -1.589,3.56 -1.958,5.399 1.746,-0.679 3.449,-1.608 4.979,-2.86 0.303,-1.826 0.931,-3.656 1.99,-5.441 -1.576,1.351 -3.27,2.288 -5.011,2.902"
   clip-rule="evenodd"
   clip-path="url(#SVGID_18_)"
   transform="matrix(6.7555909,0,0,6.7555909,-3668.7925,-175.5035)" /><path
   style="fill:#f7e700;fill-rule:evenodd"
   id="path213"
   d="m 573.396,61.351 c -0.366,-1.947 -1.071,-3.751 -1.975,-5.396 -0.902,1.645 -1.609,3.449 -1.974,5.396 0.941,1.587 1.637,3.396 1.974,5.445 0.339,-2.049 1.033,-3.858 1.975,-5.445"
   clip-rule="evenodd"
   clip-path="url(#SVGID_18_)"
   transform="matrix(6.7555909,0,0,6.7555909,-3668.7925,-175.5035)" /><path
   style="fill:#f7e700;fill-rule:evenodd"
   id="path215"
   d="m 573.387,67.144 c 1.016,-1.813 2.29,-3.272 3.719,-4.445 0.321,-1.951 0.271,-3.889 -0.012,-5.746 -1.408,1.239 -2.694,2.694 -3.697,4.398 0.339,1.813 0.374,3.75 -0.01,5.793"
   clip-rule="evenodd"
   clip-path="url(#SVGID_18_)"
   transform="matrix(6.7555909,0,0,6.7555909,-3668.7925,-175.5035)" /><path
   style="fill:#f7e700;fill-rule:evenodd"
   id="path217"
   d="m 580.125,65.236 c 0.971,-1.723 1.588,-3.561 1.956,-5.401 -1.747,0.681 -3.448,1.608 -4.976,2.864 -0.302,1.824 -0.934,3.654 -1.994,5.44 1.577,-1.354 3.274,-2.288 5.014,-2.903"
   clip-rule="evenodd"
   clip-path="url(#SVGID_18_)"
   transform="matrix(6.7555909,0,0,6.7555909,-3668.7925,-175.5035)" /><path
   style="fill:#ffffff;fill-rule:evenodd"
   id="path219"
   d="m 569.456,67.144 c -1.014,-1.813 -2.288,-3.272 -3.716,-4.445 0.303,1.824 0.931,3.654 1.988,5.439 -1.573,-1.353 -3.268,-2.29 -5.009,-2.902 0.901,1.609 2.12,3.117 3.729,4.432 -1.945,-0.735 -3.859,-1.036 -5.704,-1.014 1.401,1.203 3.057,2.2 5.02,2.889 -2.075,-0.027 -3.976,0.347 -5.707,0.997 1.731,0.65 3.632,1.022 5.707,0.996 -1.963,0.688 -3.618,1.687 -5.02,2.889 1.845,0.022 3.759,-0.277 5.704,-1.014 -1.609,1.317 -2.828,2.821 -3.729,4.432 1.741,-0.614 3.436,-1.551 5.011,-2.902 -1.06,1.785 -1.688,3.615 -1.99,5.441 1.428,-1.176 2.702,-2.634 3.716,-4.444 -0.386,2.037 -0.345,3.974 -0.008,5.791 0.941,-1.592 1.637,-3.397 1.974,-5.445 0.338,2.048 1.032,3.853 1.975,5.445 0.34,-1.817 0.375,-3.754 -0.01,-5.791 1.016,1.81 2.29,3.268 3.719,4.444 -0.302,-1.826 -0.934,-3.656 -1.994,-5.441 1.576,1.351 3.273,2.288 5.014,2.902 -0.904,-1.611 -2.124,-3.115 -3.729,-4.432 1.944,0.737 3.855,1.036 5.702,1.014 -1.402,-1.202 -3.062,-2.201 -5.021,-2.892 2.077,0.029 3.976,-0.343 5.705,-0.993 -1.729,-0.65 -3.628,-1.024 -5.705,-0.997 1.959,-0.689 3.618,-1.686 5.021,-2.889 -1.847,-0.022 -3.758,0.279 -5.706,1.014 1.608,-1.315 2.828,-2.823 3.732,-4.432 -1.74,0.615 -3.438,1.549 -5.014,2.903 1.061,-1.786 1.692,-3.616 1.994,-5.44 -1.429,1.173 -2.703,2.632 -3.719,4.445 0.385,-2.043 0.35,-3.98 0.01,-5.793 -0.942,1.587 -1.637,3.396 -1.975,5.445 -0.337,-2.049 -1.032,-3.858 -1.974,-5.445 -0.336,1.813 -0.377,3.75 0.009,5.793"
   clip-rule="evenodd"
   clip-path="url(#SVGID_18_)"
   transform="matrix(6.7555909,0,0,6.7555909,-3668.7925,-175.5035)" />


</svg>