<svg xmlns:dc="http://purl.org/dc/elements/1.1/" xmlns:cc="http://creativecommons.org/ns#" xmlns:rdf="http://www.w3.org/1999/02/22-rdf-syntax-ns#" xmlns:svg="http://www.w3.org/2000/svg" xmlns="http://www.w3.org/2000/svg" style="overflow:visible" xml:space="preserve" overflow="visible" viewBox="0 0 300 100" height="100" width="150" id="Layer_1" version="1.1"><metadata id="metadata4328"><rdf:RDF><cc:Work rdf:about=""><dc:format>image/svg+xml</dc:format><dc:type rdf:resource="http://purl.org/dc/dcmitype/StillImage"/><dc:title/></cc:Work></rdf:RDF></metadata><defs id="defs4326"/><g transform="" id="g4318"><path style="fill:#ed1b2d" id="path4320" d="m 97.526,56.782 c 0,-19.18 15.554,-34.74 34.725,-34.74 19.181,0 34.733,15.56 34.733,34.74 0,19.194 -15.553,34.724 -34.733,34.724 -19.171,0 -34.725,-15.529 -34.725,-34.724 m 34.697,15.943 c 8.793,0 15.912,-7.127 15.912,-15.928 0,-8.793 -7.119,-15.928 -15.912,-15.928 -8.807,0 -15.913,7.135 -15.913,15.928 0,8.801 7.106,15.928 15.913,15.928 z"/><path style="fill:#006bb6" id="path4322" d="m 0,0 29.038,0 16.412,55.006 0.234,0 L 62.361,0 l 28.245,0 0,89.593 -18.675,0 0,-63.36 -0.248,0 -17.911,63.36 -17.16,0 -17.675,-63.36 -0.249,0 0,63.36 L 0,89.593 0,0 m 252.305,17.66 18.674,0 0,-17.66 -18.674,0 0,17.66 z m 0,71.933 18.674,0 0,-65.635 -18.674,0 0,65.635 z m 29.022,0 18.673,0 0,-89.593 -18.673,0 0,89.593 z m -106.511,0 18.666,0 0,-5.814 c 4.8,5.306 10.855,7.333 17.924,7.333 18.806,0 33.074,-15.766 33.074,-34.205 0,-18.409 -14.145,-34.446 -33.074,-34.446 -6.812,0 -12.734,2.136 -17.924,6.568 l 0,-29.029 -18.666,0 0,89.593 M 193.71,56.797 c 0,-8.793 7.111,-15.928 15.912,-15.928 8.801,0 15.921,7.135 15.921,15.928 0,8.801 -7.12,15.928 -15.921,15.928 -8.801,0 -15.912,-7.127 -15.912,-15.928 z"/></g>
       </svg>